<svg width="16" height="16" viewBox="0 0 16 16" fill="none" xmlns="http://www.w3.org/2000/svg">
<path d="M10.3806 13.1811C11.8894 12.8728 13.0684 11.6936 13.3768 10.1849L12.2506 9.95474C12.0345 11.0123 11.208 11.8388 10.1504 12.055L10.3806 13.1811ZM10.3806 12.1003C10.9687 12.2205 10.9687 13.0609 10.3806 13.1811L10.1504 12.055C9.51286 12.1853 9.51284 13.0962 10.1504 13.2265L10.3806 12.1003ZM13.3768 15.0966C13.0684 13.5879 11.8894 12.4087 10.3806 12.1003L10.1504 13.2265C11.208 13.4427 12.0345 14.2692 12.2506 15.3267L13.3768 15.0966ZM12.2961 15.0966C12.4163 14.5085 13.2566 14.5085 13.3768 15.0966L12.2506 15.3267C12.381 15.9643 13.2919 15.9643 13.4222 15.3267L12.2961 15.0966ZM15.2923 12.1003C13.7835 12.4087 12.6044 13.5879 12.2961 15.0966L13.4222 15.3267C13.6384 14.2692 14.4649 13.4427 15.5225 13.2265L15.2923 12.1003ZM15.2923 13.1811C14.7041 13.0609 14.7041 12.2205 15.2923 12.1003L15.5225 13.2265C16.16 13.0962 16.16 12.1853 15.5225 12.055L15.2923 13.1811ZM12.2961 10.1849C12.6044 11.6936 13.7835 12.8728 15.2923 13.1811L15.5225 12.055C14.4649 11.8388 13.6384 11.0123 13.4222 9.95474L12.2961 10.1849ZM13.4222 9.95474C13.2919 9.31718 12.381 9.31716 12.2506 9.95474L13.3768 10.1849C13.2566 10.773 12.4163 10.773 12.2961 10.1849L13.4222 9.95474Z" fill="#616373"/>
<path d="M9.17173 6.80094C9.21968 6.56635 9.55483 6.56636 9.60278 6.80094C9.70867 7.31903 10.1136 7.72392 10.6317 7.82981C10.8662 7.87776 10.8662 8.21291 10.6317 8.26086C10.1136 8.36676 9.70867 8.77164 9.60278 9.28974C9.55483 9.52432 9.21968 9.52432 9.17173 9.28974C9.06584 8.77164 8.66095 8.36676 8.14285 8.26086C7.90827 8.21291 7.90827 7.87776 8.14285 7.82981C8.66095 7.72392 9.06584 7.31903 9.17173 6.80094Z" fill="#616373"/>
<path d="M8.12984 14.6771C8.40851 14.5252 8.51113 14.176 8.35914 13.8973C8.20714 13.6187 7.85805 13.516 7.57939 13.668L8.12984 14.6771ZM13.0272 7.65896C13.0272 7.97637 13.2845 8.23369 13.6019 8.23369C13.9193 8.23369 14.1766 7.97637 14.1766 7.65896H13.0272ZM0.574728 13.1994H1.90202e-07V13.2007L0.574728 13.1994ZM2.58843 14.6507L2.76885 15.1965L2.77016 15.196L2.58843 14.6507ZM4.40625 4.01902C4.08884 4.01902 3.83152 4.27634 3.83152 4.59375C3.83152 4.91115 4.08884 5.16847 4.40625 5.16847V4.01902ZM9.77037 5.16847C10.0878 5.16847 10.3451 4.91115 10.3451 4.59375C10.3451 4.27634 10.0878 4.01902 9.77037 4.01902V5.16847ZM4.40625 7.46739C4.08884 7.46739 3.83152 7.72471 3.83152 8.04211C3.83152 8.35952 4.08884 8.61684 4.40625 8.61684V7.46739ZM5.74728 8.61684C6.06468 8.61684 6.32201 8.35952 6.32201 8.04211C6.32201 7.72471 6.06468 7.46739 5.74728 7.46739V8.61684ZM8.69755 0.1875H5.47907V1.33696H8.69755V0.1875ZM7.02805 15.2781L8.12984 14.6771L7.57939 13.668L6.47762 14.269L7.02805 15.2781ZM14.1766 7.65896V5.66659H13.0272V7.65896H14.1766ZM3.32559 15.0109C3.7121 14.882 4.13647 14.9389 4.47545 15.1648L5.11306 14.2085C4.47894 13.7857 3.68513 13.6793 2.96211 13.9204L3.32559 15.0109ZM1.90202e-07 13.2007C0.00350603 14.6348 1.40729 15.6466 2.76885 15.1965L2.40803 14.1051C1.78914 14.3097 1.15105 13.8498 1.14946 13.1979L1.90202e-07 13.2007ZM5.47907 0.1875C4.6302 0.1875 3.95899 0.187065 3.41904 0.231185C2.87237 0.275849 2.4098 0.369007 1.98744 0.584216L2.50929 1.60842C2.74261 1.48953 3.03707 1.41566 3.51266 1.37681C3.99494 1.3374 4.61123 1.33696 5.47907 1.33696V0.1875ZM1.14946 5.66659C1.14946 4.79875 1.1499 4.18242 1.18931 3.70013C1.22816 3.22454 1.30201 2.93011 1.42089 2.69679L0.396739 2.17491C0.18153 2.59728 0.0883254 3.05991 0.0436614 3.60659C-0.000458406 4.14654 1.90202e-07 4.81772 1.90202e-07 5.66659H1.14946ZM1.98744 0.584216C1.30254 0.933191 0.745714 1.49001 0.396739 2.17491L1.42089 2.69679C1.65966 2.22818 2.04068 1.84719 2.50929 1.60842L1.98744 0.584216ZM4.47545 15.1648C5.23914 15.674 6.22224 15.7176 7.02805 15.2781L6.47762 14.269C6.04688 14.5039 5.52134 14.4807 5.11306 14.2085L4.47545 15.1648ZM8.69755 1.33696C9.56539 1.33696 10.1817 1.3374 10.664 1.37681C11.1396 1.41566 11.434 1.48953 11.6673 1.60842L12.1892 0.584216C11.7668 0.369007 11.3042 0.275849 10.7576 0.231185C10.2176 0.187065 9.54643 0.1875 8.69755 0.1875V1.33696ZM14.1766 5.66659C14.1766 4.81772 14.1771 4.14654 14.1329 3.60659C14.0883 3.05991 13.9951 2.59728 13.7799 2.17491L12.7557 2.69679C12.8746 2.93011 12.9485 3.22454 12.9873 3.70013C13.0267 4.18242 13.0272 4.79875 13.0272 5.66659H14.1766ZM11.6673 1.60842C12.136 1.84719 12.517 2.22818 12.7557 2.69679L13.7799 2.17491C13.4309 1.49001 12.8741 0.933191 12.1892 0.584216L11.6673 1.60842ZM4.40625 5.16847H9.77037V4.01902H4.40625V5.16847ZM4.40625 8.61684H5.74728V7.46739H4.40625V8.61684ZM1.90202e-07 5.66659V13.1994H1.14946V5.66659H1.90202e-07ZM2.77016 15.196L3.32559 15.0109L2.96211 13.9204L2.4067 14.1056L2.77016 15.196Z" fill="#616373"/>
</svg>
