<svg width="56" height="56" viewBox="0 0 56 56" fill="none" xmlns="http://www.w3.org/2000/svg">
<path fill-rule="evenodd" clip-rule="evenodd" d="M13.3985 0L33.6001 0.260256L50.4001 16.8V48.7097C50.4001 52.7396 46.9125 56 42.6166 56H13.3985C9.08769 56 5.6001 52.7396 5.6001 48.7097V7.29033C5.60002 3.26036 9.08762 0 13.3985 0Z" fill="#079455"/>
<path d="M18.4069 35.6364L20.2549 38.7596H20.3264L22.1833 35.6364H24.3713L21.5748 40.2182L24.434 44.8H22.2057L20.3264 41.6724H20.2549L18.3756 44.8H16.1563L19.0244 40.2182L16.21 35.6364H18.4069ZM25.5973 44.8V35.6364H27.5348V43.2027H31.4633V44.8H25.5973ZM37.7174 38.2719C37.6816 37.9109 37.528 37.6305 37.2566 37.4307C36.9851 37.2308 36.6167 37.1309 36.1514 37.1309C35.8352 37.1309 35.5682 37.1756 35.3505 37.2651C35.1327 37.3516 34.9657 37.4724 34.8493 37.6275C34.736 37.7826 34.6793 37.9586 34.6793 38.1555C34.6733 38.3196 34.7076 38.4628 34.7822 38.5851C34.8598 38.7074 34.9657 38.8133 35.0999 38.9027C35.2341 38.9893 35.3892 39.0653 35.5652 39.1309C35.7412 39.1936 35.9292 39.2473 36.129 39.292L36.9523 39.4889C37.352 39.5784 37.7189 39.6977 38.053 39.8469C38.3871 39.996 38.6765 40.1795 38.9211 40.3972C39.1657 40.615 39.3551 40.8715 39.4893 41.1668C39.6265 41.4621 39.6966 41.8007 39.6996 42.1825C39.6966 42.7433 39.5535 43.2295 39.2701 43.6412C38.9897 44.0498 38.584 44.3675 38.053 44.5942C37.525 44.8179 36.8882 44.9298 36.1424 44.9298C35.4027 44.9298 34.7584 44.8165 34.2095 44.5898C33.6636 44.363 33.237 44.0275 32.9298 43.583C32.6255 43.1356 32.466 42.5822 32.451 41.923H34.3258C34.3467 42.2302 34.4347 42.4868 34.5898 42.6926C34.7479 42.8954 34.9582 43.0491 35.2207 43.1535C35.4862 43.2549 35.786 43.3056 36.1201 43.3056C36.4482 43.3056 36.7331 43.2579 36.9747 43.1624C37.2193 43.067 37.4087 42.9342 37.5429 42.7642C37.6772 42.5942 37.7443 42.3988 37.7443 42.178C37.7443 41.9722 37.6831 41.7992 37.5608 41.659C37.4415 41.5188 37.2655 41.3995 37.0329 41.301C36.8032 41.2026 36.5213 41.1131 36.1872 41.0326L35.1894 40.782C34.4168 40.5941 33.8068 40.3003 33.3593 39.9005C32.9119 39.5008 32.6897 38.9624 32.6927 38.2853C32.6897 37.7304 32.8373 37.2457 33.1356 36.8311C33.4369 36.4165 33.85 36.0928 34.375 35.8601C34.9 35.6275 35.4966 35.5111 36.1648 35.5111C36.8449 35.5111 37.4385 35.6275 37.9456 35.8601C38.4557 36.0928 38.8525 36.4165 39.1358 36.8311C39.4192 37.2457 39.5654 37.726 39.5743 38.2719H37.7174Z" fill="white"/>
<path d="M33.636 11.424V0L50.4001 16.8H39.224C34.1948 16.8 33.4032 13.216 33.636 11.424Z" fill="white" fill-opacity="0.3"/>
</svg>
