<svg xmlns="http://www.w3.org/2000/svg" width="20" height="20" viewBox="0 0 20 20" fill="none">
  <path d="M8.39288 17.9167H3.33333C2.8731 17.9167 2.5 17.5436 2.5 17.0833V3.33333C2.5 2.8731 2.8731 2.5 3.33333 2.5H16.6667C17.1269 2.5 17.5 2.8731 17.5 3.33333V7.38196" stroke="currentColor" stroke-width="1.66667" stroke-linecap="round" stroke-linejoin="round"/>
  <path d="M7.41708 6.92217C9.02524 5.61737 11.3869 5.86294 12.6919 7.47102C13.7333 8.75442 13.7856 10.5171 12.9475 11.8402L14.2502 13.4455C14.4133 13.6464 14.3823 13.9417 14.1816 14.1049L13.6182 14.5621C13.4172 14.7251 13.122 14.6945 12.9589 14.4935L11.7608 13.0171C10.179 14.0043 8.07353 13.682 6.86824 12.197C5.56319 10.5888 5.80892 8.22721 7.41708 6.92217ZM8.46443 8.21278C7.56922 8.93925 7.43237 10.2544 8.15885 11.1496C8.88535 12.0447 10.2006 12.1817 11.0957 11.4552C11.9906 10.7288 12.1275 9.41348 11.4013 8.51836C10.6749 7.62324 9.35963 7.48655 8.46443 8.21278Z" fill="currentColor"/>
</svg>
