<svg width="16" height="16" viewBox="0 0 16 16" fill="none" xmlns="http://www.w3.org/2000/svg">
<path d="M13.4536 4.54316C13.3854 4.54241 13.3181 4.52785 13.2557 4.50035C13.1932 4.47285 13.137 4.43299 13.0904 4.38316L11.9416 3.15196L10.7928 4.38236C10.7481 4.43123 10.6942 4.47072 10.634 4.49852C10.5739 4.52632 10.5089 4.54188 10.4427 4.54429C10.3765 4.5467 10.3105 4.53591 10.2485 4.51256C10.1865 4.48921 10.1298 4.45376 10.0817 4.40827C10.0335 4.36278 9.99492 4.30816 9.96809 4.2476C9.94127 4.18705 9.92676 4.12176 9.92542 4.05553C9.92407 3.98931 9.93592 3.92349 9.96027 3.86189C9.98462 3.8003 10.021 3.74416 10.0672 3.69676L11.6 2.06316C11.6466 2.01334 11.7028 1.97347 11.7653 1.94597C11.8277 1.91847 11.895 1.90391 11.9632 1.90316C12.0318 1.90186 12.0998 1.9155 12.1625 1.94313C12.2252 1.97076 12.2812 2.01172 12.3264 2.06316L13.8584 3.69596C13.9475 3.79253 13.9953 3.92 13.9919 4.05129C13.9885 4.18259 13.934 4.30738 13.84 4.39916C13.7263 4.47781 13.5944 4.52625 13.4568 4.53996L13.4536 4.54316ZM11.92 14.2392C11.8515 14.2405 11.7835 14.2268 11.7208 14.1992C11.6581 14.1716 11.6021 14.1306 11.5568 14.0792L10.0248 12.4464C9.97973 12.3986 9.94445 12.3424 9.92104 12.2811C9.89762 12.2197 9.88653 12.1543 9.88838 12.0886C9.89024 12.0229 9.90501 11.9583 9.93186 11.8983C9.95871 11.8384 9.9971 11.7843 10.0448 11.7392C10.0926 11.694 10.1488 11.6588 10.2101 11.6353C10.2715 11.6119 10.3369 11.6008 10.4026 11.6027C10.4683 11.6046 10.5329 11.6193 10.5929 11.6462C10.6528 11.673 10.7069 11.7114 10.752 11.7592L11.9008 12.9888L13.0504 11.7592C13.1419 11.6654 13.2666 11.6114 13.3976 11.6087C13.5286 11.6061 13.6553 11.655 13.7506 11.745C13.8458 11.8349 13.9018 11.9587 13.9066 12.0896C13.9114 12.2206 13.8645 12.3481 13.776 12.4448L12.244 14.0792C12.204 14.18 12.0624 14.2392 11.924 14.2392H11.92Z" fill="#6E757F"/>
<path d="M11.92 13.4346C11.8536 13.4352 11.7878 13.4226 11.7264 13.3975C11.6649 13.3724 11.6091 13.3353 11.5622 13.2884C11.5152 13.2415 11.4781 13.1856 11.453 13.1242C11.4279 13.0628 11.4153 12.9969 11.416 12.9306V3.13217C11.416 2.9985 11.4691 2.87031 11.5636 2.77579C11.6581 2.68127 11.7863 2.62817 11.92 2.62817C12.0537 2.62817 12.1819 2.68127 12.2764 2.77579C12.3709 2.87031 12.424 2.9985 12.424 3.13217V12.9306C12.4246 12.9969 12.412 13.0628 12.3869 13.1242C12.3618 13.1856 12.3247 13.2415 12.2778 13.2884C12.2309 13.3353 12.1751 13.3724 12.1136 13.3975C12.0522 13.4226 11.9864 13.4352 11.92 13.4346ZM7.96959 5.85377H2.66719C2.53352 5.85377 2.40533 5.80067 2.31081 5.70616C2.21629 5.61164 2.16319 5.48344 2.16319 5.34977C2.16319 5.2161 2.21629 5.08791 2.31081 4.99339C2.40533 4.89887 2.53352 4.84577 2.66719 4.84577H7.96959C8.03595 4.84513 8.10178 4.85773 8.16322 4.88283C8.22466 4.90793 8.28047 4.94503 8.3274 4.99196C8.37433 5.03889 8.41143 5.09471 8.43653 5.15615C8.46163 5.21758 8.47423 5.28341 8.47359 5.34977C8.47153 5.4828 8.41776 5.6098 8.32369 5.70387C8.22961 5.79795 8.10261 5.85171 7.96959 5.85377ZM7.96959 8.39457H2.66719C2.53352 8.39457 2.40533 8.34147 2.31081 8.24696C2.21629 8.15244 2.16319 8.02424 2.16319 7.89057C2.16319 7.75691 2.21629 7.62871 2.31081 7.53419C2.40533 7.43967 2.53352 7.38657 2.66719 7.38657H7.96959C8.03595 7.38593 8.10178 7.39853 8.16322 7.42363C8.22466 7.44873 8.28047 7.48583 8.3274 7.53276C8.37433 7.57969 8.41143 7.63551 8.43653 7.69695C8.46163 7.75838 8.47423 7.82421 8.47359 7.89057C8.47153 8.0236 8.41776 8.1506 8.32369 8.24467C8.22961 8.33875 8.10261 8.39251 7.96959 8.39457ZM7.94959 11.2978H2.64719C2.51352 11.2978 2.38533 11.2447 2.29081 11.1502C2.19629 11.0556 2.14319 10.9274 2.14319 10.7938C2.14319 10.6601 2.19629 10.5319 2.29081 10.4374C2.38533 10.3429 2.51352 10.2898 2.64719 10.2898H7.94959C8.01595 10.2891 8.08178 10.3017 8.14322 10.3268C8.20465 10.3519 8.26047 10.389 8.3074 10.436C8.35433 10.4829 8.39143 10.5387 8.41653 10.6001C8.44163 10.6616 8.45423 10.7274 8.45359 10.7938C8.45153 10.9268 8.39776 11.0538 8.30369 11.1479C8.20961 11.242 8.08261 11.2957 7.94959 11.2978Z" fill="#6E757F"/>
</svg>
