<svg width="25" height="24" viewBox="0 0 25 24" fill="none" xmlns="http://www.w3.org/2000/svg">
<path d="M10.0474 0.0917969C10.2548 0.0590803 10.4669 0.0690734 10.6704 0.121094C10.8738 0.173111 11.0645 0.26626 11.231 0.394531C11.3974 0.5228 11.5366 0.68346 11.6392 0.867188C11.7417 1.05104 11.8057 1.25434 11.8276 1.46387L11.8286 1.46777C11.8795 1.77765 11.8383 2.09615 11.7104 2.38281C11.5827 2.66924 11.3737 2.91159 11.1099 3.08008L11.0552 3.11523L11.0825 3.17285L12.0542 5.2207L9.77686 5.36621L10.0259 3.34766L10.0337 3.2832L9.97119 3.26758C9.664 3.19156 9.38553 3.02654 9.17236 2.79199C8.95922 2.5574 8.82095 2.26408 8.77393 1.9502L8.77295 1.94629L8.74854 1.79004C8.73194 1.63354 8.73902 1.47521 8.77002 1.32031C8.81136 1.11374 8.89393 0.917581 9.01318 0.744141C9.13241 0.570768 9.28565 0.423664 9.46338 0.311523C9.64117 0.199355 9.83988 0.124519 10.0474 0.0917969Z" fill="#01014B" stroke="#01014B" stroke-width="0.145833"/>
<path d="M7.20541 6.52456C11.3391 3.71814 16.8263 4.51511 19.4343 8.49218L19.4728 8.55308C19.6677 8.87132 19.8908 9.39099 20.0828 9.86255C20.297 10.3884 20.5171 10.9688 20.6665 11.3485C20.722 11.4897 20.8024 11.6245 20.9052 11.7482C21.7297 12.7406 22.0942 13.0752 23.0814 13.9446C23.4329 14.2542 23.565 14.7879 23.3162 15.2461C22.9891 15.8486 22.0005 17.8171 20.2776 19.5084C18.5555 21.1987 15.9314 22.879 12.7707 23.1141C9.95434 23.3237 7.46069 22.066 5.45711 20.8785C3.4462 19.6866 1.97159 18.306 1.39722 17.7319C0.88981 17.2247 1.05434 16.4729 1.48699 16.112L1.56524 16.0451C1.979 15.6799 2.74937 14.7501 3.47759 13.0191C3.5209 12.7707 3.61379 12.5495 3.65393 12.2586C3.69753 11.9426 3.84041 11.4208 3.9027 11.0816C4.02537 10.4134 4.51643 9.46812 4.92586 8.8421C5.6065 7.80143 6.08785 7.29025 7.10641 6.59153L7.20541 6.52456ZM18.1454 9.34897C16.0762 6.19268 11.591 5.41869 8.06495 7.816L8.06212 7.8179L8.05948 7.8198C7.17299 8.41149 6.41223 9.18021 5.82352 10.0804C5.58732 10.4415 5.43842 10.9337 5.32643 11.5437C5.27138 11.8435 5.22843 12.1519 5.18424 12.4722C5.14097 12.7858 5.09593 13.1155 5.03866 13.4275L5.02376 13.5085L4.99227 13.5845C4.27291 15.3262 3.43516 16.3827 2.84078 16.9724C3.50964 17.6008 4.71016 18.632 6.24122 19.5394C8.1076 20.6456 10.3937 21.5257 12.7707 21.3488C15.44 21.1502 17.5772 19.7477 19.1492 18.2047C20.4608 16.9172 21.3406 15.5677 21.7632 14.8483C20.95 14.1266 20.5219 13.7103 19.72 12.745C19.5176 12.5014 19.3497 12.2243 19.2301 11.9203C19.0692 11.5114 18.8639 10.9687 18.6534 10.4518C18.4336 9.91215 18.2498 9.50746 18.1461 9.34992L18.1454 9.34897Z" fill="#01014B"/>
<path d="M12.4578 8.62793C15.2726 8.62793 17.5377 10.6241 17.5378 13.0674C17.5378 15.5107 15.2727 17.5078 12.4578 17.5078C9.64305 17.5076 7.37866 15.5106 7.37866 13.0674C7.37878 10.6242 9.64313 8.62813 12.4578 8.62793Z" fill="#01014B" stroke="#01014B" stroke-width="0.145833"/>
<path d="M12.5099 13.4334C12.9735 13.4334 13.3492 12.9324 13.3492 12.3144C13.3492 11.6963 12.9735 11.1953 12.5099 11.1953C12.0464 11.1953 11.6707 11.6963 11.6707 12.3144C11.6707 12.9324 12.0464 13.4334 12.5099 13.4334Z" fill="white"/>
<path d="M16.0581 13.4879C16.5208 13.4599 16.8655 12.9371 16.8281 12.3202C16.7908 11.7032 16.3854 11.2259 15.9227 11.2539C15.46 11.282 15.1153 11.8048 15.1527 12.4217C15.19 13.0386 15.5954 13.516 16.0581 13.4879Z" fill="white"/>
</svg>
